<?xml version="1.0" standalone="no"?>
<!DOCTYPE svg PUBLIC "-//W3C//DTD SVG 20010904//EN"
 "http://www.w3.org/TR/2001/REC-SVG-20010904/DTD/svg10.dtd">
<svg version="1.0" xmlns="http://www.w3.org/2000/svg"
 width="512.000000pt" height="512.000000pt" viewBox="0 0 512.000000 512.000000"
 preserveAspectRatio="xMidYMid meet">
<metadata>
Created by potrace 1.14, written by Peter Selinger 2001-2017
</metadata>
<g transform="translate(0.000000,512.000000) scale(0.100000,-0.100000)"
fill="#000000" stroke="none">
<path d="M0 2560 l0 -2560 2560 0 2560 0 0 2560 0 2560 -2560 0 -2560 0 0
-2560z m3680 1130 c0 -20 -391 -686 -416 -707 -24 -22 -32 -23 -220 -23 -163
0 -194 2 -194 15 0 14 38 89 134 268 l48 87 -387 0 c-306 0 -386 -3 -382 -12
21 -50 665 -1173 672 -1172 5 1 44 63 86 138 l77 136 -66 0 c-121 1 -167 35
-252 190 -28 52 -65 112 -81 133 l-30 37 532 0 c421 0 530 -3 526 -12 -13 -32
-778 -1353 -785 -1356 -5 -1 -13 8 -19 20 -6 13 -299 524 -652 1136 -352 612
-641 1117 -641 1122 0 7 356 10 1025 10 686 0 1025 -3 1025 -10z m580 4 c0 -4
-89 -162 -197 -352 -147 -256 -206 -349 -228 -363 -27 -17 -52 -19 -227 -19
-109 0 -198 2 -198 5 0 9 392 701 407 718 14 15 39 17 230 17 117 0 213 -3
213 -6z m-2793 -26 c11 -13 161 -261 333 -553 172 -291 479 -810 682 -1152
202 -342 373 -634 378 -648 20 -54 18 -59 -183 -403 -13 -22 -57 51 -795 1330
-429 744 -793 1374 -807 1401 l-27 47 199 0 c194 0 200 -1 220 -22z"/>
</g>
</svg>
